<svg xmlns="http://www.w3.org/2000/svg" viewBox="0 0 928 868" role="img" aria-label="">
  <path
    fill="#000"
    fill-rule="evenodd"
    d="
      M489 122
      C539 122 568 146 587 190
      C603 229 609 269 622 311
      C643 379 685 447 731 507
      C764 550 791 594 791 638
      L791 751
      C791 778 728 806 650 824
      C608 833 561 839 516 842
      C504 858 485 868 464 868
      C443 868 424 858 412 842
      C367 839 320 833 278 824
      C200 806 137 778 137 751
      L137 638
      C137 594 164 550 197 507
      C243 447 285 379 306 311
      C319 269 325 229 341 190
      C360 146 390 122 439 122
      C454 122 468 126 489 122

      M489 171
      C455 171 434 195 421 239
      C411 272 407 313 394 354
      C371 426 326 501 277 566
      C243 611 219 650 219 692
      C219 730 239 753 282 768
      C335 787 412 796 489 796
      C566 796 643 787 696 768
      C739 753 759 730 759 692
      C759 650 735 611 701 566
      C652 501 607 426 584 354
      C571 313 567 272 557 239
      C544 195 523 171 489 171

      M489 806
      m-42 0
      a42 42 0 1 0 84 0
      a42 42 0 1 0 -84 0
    "
  />
</svg>
